<svg id="visual" viewBox="0 0 960 540" width="960" height="540" xmlns="http://www.w3.org/2000/svg" xmlns:xlink="http://www.w3.org/1999/xlink" version="1.1"><rect x="0" y="0" width="960" height="540" fill="#18333b"></rect><defs><linearGradient id="grad1_0" x1="43.8%" y1="0%" x2="100%" y2="100%"><stop offset="14.444444444444446%" stop-color="#000000" stop-opacity="1"></stop><stop offset="85.55555555555554%" stop-color="#000000" stop-opacity="1"></stop></linearGradient></defs><defs><linearGradient id="grad1_1" x1="43.8%" y1="0%" x2="100%" y2="100%"><stop offset="14.444444444444446%" stop-color="#000000" stop-opacity="1"></stop><stop offset="85.55555555555554%" stop-color="#00151c" stop-opacity="1"></stop></linearGradient></defs><defs><linearGradient id="grad1_2" x1="43.8%" y1="0%" x2="100%" y2="100%"><stop offset="14.444444444444446%" stop-color="#021e26" stop-opacity="1"></stop><stop offset="85.55555555555554%" stop-color="#00151c" stop-opacity="1"></stop></linearGradient></defs><defs><linearGradient id="grad1_3" x1="43.8%" y1="0%" x2="100%" y2="100%"><stop offset="14.444444444444446%" stop-color="#021e26" stop-opacity="1"></stop><stop offset="85.55555555555554%" stop-color="#0c2830" stop-opacity="1"></stop></linearGradient></defs><defs><linearGradient id="grad1_4" x1="43.8%" y1="0%" x2="100%" y2="100%"><stop offset="14.444444444444446%" stop-color="#18333b" stop-opacity="1"></stop><stop offset="85.55555555555554%" stop-color="#0c2830" stop-opacity="1"></stop></linearGradient></defs><defs><linearGradient id="grad2_0" x1="0%" y1="0%" x2="56.3%" y2="100%"><stop offset="14.444444444444446%" stop-color="#000000" stop-opacity="1"></stop><stop offset="85.55555555555554%" stop-color="#000000" stop-opacity="1"></stop></linearGradient></defs><defs><linearGradient id="grad2_1" x1="0%" y1="0%" x2="56.3%" y2="100%"><stop offset="14.444444444444446%" stop-color="#00151c" stop-opacity="1"></stop><stop offset="85.55555555555554%" stop-color="#000000" stop-opacity="1"></stop></linearGradient></defs><defs><linearGradient id="grad2_2" x1="0%" y1="0%" x2="56.3%" y2="100%"><stop offset="14.444444444444446%" stop-color="#00151c" stop-opacity="1"></stop><stop offset="85.55555555555554%" stop-color="#021e26" stop-opacity="1"></stop></linearGradient></defs><defs><linearGradient id="grad2_3" x1="0%" y1="0%" x2="56.3%" y2="100%"><stop offset="14.444444444444446%" stop-color="#0c2830" stop-opacity="1"></stop><stop offset="85.55555555555554%" stop-color="#021e26" stop-opacity="1"></stop></linearGradient></defs><defs><linearGradient id="grad2_4" x1="0%" y1="0%" x2="56.3%" y2="100%"><stop offset="14.444444444444446%" stop-color="#0c2830" stop-opacity="1"></stop><stop offset="85.55555555555554%" stop-color="#18333b" stop-opacity="1"></stop></linearGradient></defs><g transform="translate(960, 0)"><path d="M0 513C-29.1 510.7 -58.1 508.4 -89.1 505.2C-120 502 -152.9 497.9 -171.4 470.8C-189.8 443.7 -193.9 393.5 -219 379.3C-244.1 365.1 -290.3 386.9 -321.4 383C-352.5 379.1 -368.5 349.6 -385.3 323.3C-402.1 297 -419.6 274 -427 246.5C-434.3 219 -431.5 187.1 -439.8 160.1C-448.1 133 -467.5 110.8 -481.6 84.9C-495.6 59 -504.3 29.5 -513 0L0 0Z" fill="#122e36"></path><path d="M0 410.4C-23.2 408.6 -46.5 406.7 -71.3 404.2C-96 401.6 -122.3 398.3 -137.1 376.6C-151.9 354.9 -155.1 314.8 -175.2 303.5C-195.3 292.1 -232.2 309.5 -257.1 306.4C-282 303.3 -294.8 279.7 -308.3 258.7C-321.7 237.6 -335.7 219.2 -341.6 197.2C-347.4 175.2 -345.2 149.7 -351.8 128.1C-358.5 106.4 -374 88.6 -385.3 67.9C-396.5 47.2 -403.5 23.6 -410.4 0L0 0Z" fill="#06232b"></path><path d="M0 307.8C-17.4 306.4 -34.9 305 -53.4 303.1C-72 301.2 -91.7 298.7 -102.8 282.5C-113.9 266.2 -116.3 236.1 -131.4 227.6C-146.5 219.1 -174.2 232.1 -192.8 229.8C-211.5 227.5 -221.1 209.8 -231.2 194C-241.3 178.2 -251.8 164.4 -256.2 147.9C-260.6 131.4 -258.9 112.3 -263.9 96C-268.8 79.8 -280.5 66.5 -288.9 50.9C-297.4 35.4 -302.6 17.7 -307.8 0L0 0Z" fill="#001a21"></path><path d="M0 205.2C-11.6 204.3 -23.2 203.4 -35.6 202.1C-48 200.8 -61.2 199.2 -68.5 188.3C-75.9 177.5 -77.6 157.4 -87.6 151.7C-97.6 146.1 -116.1 154.8 -128.6 153.2C-141 151.7 -147.4 139.8 -154.1 129.3C-160.8 118.8 -167.8 109.6 -170.8 98.6C-173.7 87.6 -172.6 74.9 -175.9 64C-179.2 53.2 -187 44.3 -192.6 34C-198.3 23.6 -201.7 11.8 -205.2 0L0 0Z" fill="#000f17"></path><path d="M0 102.6C-5.8 102.1 -11.6 101.7 -17.8 101C-24 100.4 -30.6 99.6 -34.3 94.2C-38 88.7 -38.8 78.7 -43.8 75.9C-48.8 73 -58.1 77.4 -64.3 76.6C-70.5 75.8 -73.7 69.9 -77.1 64.7C-80.4 59.4 -83.9 54.8 -85.4 49.3C-86.9 43.8 -86.3 37.4 -88 32C-89.6 26.6 -93.5 22.2 -96.3 17C-99.1 11.8 -100.9 5.9 -102.6 0L0 0Z" fill="#000000"></path></g><g transform="translate(0, 540)"><path d="M0 -513C31.4 -510.2 62.8 -507.3 85.4 -484.5C108 -461.7 121.9 -418.9 150.1 -412.5C178.4 -406.1 221.2 -436 250.5 -433.9C279.8 -431.7 295.6 -397.4 307.3 -366.2C319 -334.9 326.6 -306.6 339.4 -284.8C352.1 -262.9 370.1 -247.5 402.7 -232.5C435.3 -217.5 482.6 -203 482.1 -175.5C481.5 -147.9 433.2 -107.3 430.4 -75.9C427.5 -44.5 470.3 -22.2 513 0L0 0Z" fill="#122e36"></path><path d="M0 -410.4C25.1 -408.1 50.3 -405.9 68.3 -387.6C86.4 -369.4 97.5 -335.2 120.1 -330C142.8 -324.9 177 -348.8 200.4 -347.1C223.8 -345.4 236.4 -318 245.8 -292.9C255.2 -267.9 261.3 -245.3 271.5 -227.8C281.7 -210.3 296.1 -198 322.2 -186C348.3 -174 386.1 -162.4 385.6 -140.4C385.2 -118.3 346.5 -85.8 344.3 -60.7C342 -35.6 376.2 -17.8 410.4 0L0 0Z" fill="#06232b"></path><path d="M0 -307.8C18.8 -306.1 37.7 -304.4 51.3 -290.7C64.8 -277 73.1 -251.4 90.1 -247.5C107.1 -243.7 132.7 -261.6 150.3 -260.3C167.9 -259 177.3 -238.5 184.4 -219.7C191.4 -200.9 195.9 -184 203.6 -170.9C211.3 -157.7 222.1 -148.5 241.6 -139.5C261.2 -130.5 289.6 -121.8 289.2 -105.3C288.9 -88.7 259.9 -64.4 258.2 -45.5C256.5 -26.7 282.2 -13.3 307.8 0L0 0Z" fill="#001a21"></path><path d="M0 -205.2C12.6 -204.1 25.1 -202.9 34.2 -193.8C43.2 -184.7 48.7 -167.6 60.1 -165C71.4 -162.4 88.5 -174.4 100.2 -173.6C111.9 -172.7 118.2 -159 122.9 -146.5C127.6 -134 130.6 -122.6 135.7 -113.9C140.9 -105.2 148 -99 161.1 -93C174.1 -87 193 -81.2 192.8 -70.2C192.6 -59.2 173.3 -42.9 172.1 -30.4C171 -17.8 188.1 -8.9 205.2 0L0 0Z" fill="#000f17"></path><path d="M0 -102.6C6.3 -102 12.6 -101.5 17.1 -96.9C21.6 -92.3 24.4 -83.8 30 -82.5C35.7 -81.2 44.2 -87.2 50.1 -86.8C56 -86.3 59.1 -79.5 61.5 -73.2C63.8 -67 65.3 -61.3 67.9 -57C70.4 -52.6 74 -49.5 80.5 -46.5C87.1 -43.5 96.5 -40.6 96.4 -35.1C96.3 -29.6 86.6 -21.5 86.1 -15.2C85.5 -8.9 94.1 -4.4 102.6 0L0 0Z" fill="#000000"></path></g></svg>