<svg xmlns="http://www.w3.org/2000/svg" viewBox="0 0 415.56 246.7"><defs><style>.cls-1{fill:#fff;}</style></defs><g id="Capa_2" data-name="Capa 2"><path class="cls-1" d="M0,245.23V206.3H107.26s47.24,2.68,51.1-32.68-52.88-33.28-52.88-33.28l-30-1.78s-76-5.18-75.47-69S70.09,0,70.09,0H221.28L278,130.9,335.2,0h80.36V245.23H371.23V51.78L307.86,176.05h-63l-63-136.7H75.83a30.41,30.41,0,0,0-19.78,7.28c-8.08,7-9.51,16.19-10,19.65-.33,2.36-1.93,15.68,6.47,25.18,6.47,7.32,15.72,8.8,21.29,9.61,34.27,5,66.61,8.3,79.11,9.53,7.62,2,23.6,7.28,34.83,21.86,21.8,28.29,12,73.63-11.88,95.38-10.84,9.88-23.26,15.55-47.39,17.39C85,248.54,0,245.23,0,245.23Z"/></g></svg>