<svg xmlns="http://www.w3.org/2000/svg" viewBox="0 0 416.56 247.7"><defs><style>.cls-1{fill:#211915;stroke:#211915;stroke-miterlimit:10;}</style></defs><g id="Capa_2" data-name="Capa 2"><path class="cls-1" d="M.5,245.73V206.8H107.76s47.24,2.68,51.1-32.68S106,140.84,106,140.84l-30-1.78S0,133.88.5,70.09,70.59.5,70.59.5H221.78l56.75,130.9L335.7.5h80.36V245.73H371.73V52.28L308.36,176.55h-63l-63-136.7H76.33a30.41,30.41,0,0,0-19.78,7.28c-8.08,7-9.51,16.19-10,19.65C46.23,69.14,44.63,82.46,53,92c6.47,7.32,15.72,8.8,21.29,9.61,34.27,5,66.61,8.3,79.11,9.53,7.62,2,23.6,7.28,34.83,21.86,21.8,28.29,12,73.63-11.88,95.38-10.84,9.88-23.26,15.55-47.39,17.39C85.5,249,.5,245.73.5,245.73Z"/></g></svg>